<svg xmlns="http://www.w3.org/2000/svg" width="3840" height="2160" viewBox="0 0 3840 2160">
  <defs>
    <linearGradient id="bg" x1="0" y1="0" x2="1" y2="1">
      <stop offset="0" stop-color="#071015"/>
      <stop offset="0.48" stop-color="#111820"/>
      <stop offset="1" stop-color="#05070a"/>
    </linearGradient>
    <pattern id="grid" width="96" height="96" patternUnits="userSpaceOnUse">
      <path d="M 96 0 L 0 0 0 96" fill="none" stroke="#243746" stroke-width="1" opacity="0.45"/>
    </pattern>
    <filter id="softGlow" x="-50%" y="-50%" width="200%" height="200%">
      <feGaussianBlur stdDeviation="20" result="blur"/>
      <feMerge>
        <feMergeNode in="blur"/>
        <feMergeNode in="SourceGraphic"/>
      </feMerge>
    </filter>
  </defs>
  <rect width="3840" height="2160" fill="url(#bg)"/>
  <rect width="3840" height="2160" fill="url(#grid)"/>
  <path d="M0 1470 C540 1260 760 1710 1240 1450 C1710 1195 2045 1020 2510 1190 C3060 1390 3330 945 3840 1080 L3840 2160 L0 2160 Z" fill="#101b24" opacity="0.72"/>
  <path d="M480 500 L3340 500 L3340 1640 L480 1640 Z" fill="none" stroke="#88c0d0" stroke-width="2" opacity="0.22"/>
  <path d="M660 680 L3180 680 L3180 1460 L660 1460 Z" fill="none" stroke="#a3be8c" stroke-width="2" opacity="0.18"/>
  <g filter="url(#softGlow)" opacity="0.9">
    <circle cx="2940" cy="650" r="4" fill="#88c0d0"/>
    <circle cx="3020" cy="730" r="4" fill="#a3be8c"/>
    <circle cx="2860" cy="810" r="4" fill="#ebcb8b"/>
    <path d="M2940 650 L3020 730 L2860 810 Z" fill="none" stroke="#88c0d0" stroke-width="2" opacity="0.55"/>
  </g>
  <g font-family="Hack, Fira Code, monospace" fill="#d8dee9">
    <text x="1920" y="1030" text-anchor="middle" font-size="132" font-weight="700" letter-spacing="8">Nightwire</text>
    <text x="1920" y="1125" text-anchor="middle" font-size="34" fill="#88c0d0" letter-spacing="6">READY // REVERSING // WEB // PWN // FORENSICS</text>
  </g>
  <g fill="#d8dee9" opacity="0.16" font-family="Hack, Fira Code, monospace" font-size="22">
    <text x="140" y="180">nmap -sC -sV target</text>
    <text x="3080" y="1900">tmux attach -t ops</text>
    <text x="160" y="1960">python3 -m http.server</text>
    <text x="2850" y="260">gdb -q ./challenge</text>
  </g>
</svg>
